M48
METRIC,LZ,000.000
;FILE_FORMAT=3:3
;TYPE=PLATED
;Layer: PTH_Through
;EasyEDA v6.5.47, 2024-10-28 03:20:38
;309fc15a7aae42b18f401f2aeeeb71d8,d1a2f3594b844fcea760d271ff29be0f,10
;Gerber Generator version 0.2
;Holesize 1 = 0.501 mm
T01C0.501
;Holesize 2 = 0.701 mm
T02C0.701
;Holesize 3 = 1.000 mm
T03C1.000
;Holesize 4 = 1.021 mm
T04C1.021
;Holesize 5 = 1.101 mm
T05C1.101
;Holesize 6 = 1.524 mm
T06C1.524
%
G05
G90
T01
X037844Y119784
T02
X048218Y121666G85X049318Y121666
X048218Y116586G85X049318Y116586
T03
X025908Y098425
X025908Y095885
X025908Y093345
X025908Y090805
X025908Y088265
X025908Y085725
X025908Y083185
X025908Y080645
X025908Y078105
X025908Y075565
X025908Y073025
X025908Y070485
X025908Y067945
X025908Y065405
X025908Y062865
X025908Y060325
X025908Y057785
X025908Y055245
X025908Y052705
X051308Y098425
X051308Y095885
X051308Y093345
X051308Y090805
X051308Y088265
X051308Y085725
X051308Y083185
X051308Y080645
X051308Y078105
X051308Y075565
X051308Y073025
X051308Y070485
X051308Y067945
X051308Y065405
X051308Y062865
X051308Y060325
X051308Y057785
X051308Y055245
X051308Y052705
X048895Y047879
X051435Y047879
T04
X026035Y048133
X028575Y048133
X031115Y048133
T05
X046101Y109601
X043561Y109601
X041021Y109601
X038481Y109601
X035941Y109601
X033401Y109601
X030861Y109601
T06
X028968Y126014
X043168Y120015
X041168Y114015
X041168Y126015
X028968Y114016
M30
