G04 Layer: TopSilkscreenLayer*
G04 EasyEDA v6.5.47, 2024-10-28 03:20:38*
G04 309fc15a7aae42b18f401f2aeeeb71d8,d1a2f3594b844fcea760d271ff29be0f,10*
G04 Gerber Generator version 0.2*
G04 Scale: 100 percent, Rotated: No, Reflected: No *
G04 Dimensions in millimeters *
G04 leading zeros omitted , absolute positions ,4 integer and 5 decimal *
%FSLAX45Y45*%
%MOMM*%

%ADD10C,0.1524*%
%ADD11C,0.3000*%
%ADD12C,0.2540*%

%LPD*%
D10*
X3529456Y11098784D02*
G01*
X3529456Y11207750D01*
X3456813Y11098784D02*
G01*
X3529456Y11171428D01*
X3503549Y11145520D02*
G01*
X3456813Y11207750D01*
X3422522Y11119612D02*
G01*
X3412109Y11114278D01*
X3396361Y11098784D01*
X3396361Y11207750D01*
X5332222Y11865355D02*
G01*
X5342636Y11875770D01*
X5347715Y11891263D01*
X5347715Y11912092D01*
X5342636Y11927586D01*
X5332222Y11938000D01*
X5321808Y11938000D01*
X5311393Y11932920D01*
X5306059Y11927586D01*
X5300979Y11917171D01*
X5290565Y11885929D01*
X5285486Y11875770D01*
X5280152Y11870436D01*
X5269738Y11865355D01*
X5254243Y11865355D01*
X5243829Y11875770D01*
X5238750Y11891263D01*
X5238750Y11912092D01*
X5243829Y11927586D01*
X5254243Y11938000D01*
X5347715Y11831065D02*
G01*
X5238750Y11804904D01*
X5347715Y11778995D02*
G01*
X5238750Y11804904D01*
X5347715Y11778995D02*
G01*
X5238750Y11753087D01*
X5347715Y11727179D02*
G01*
X5238750Y11753087D01*
X5326888Y11692889D02*
G01*
X5332222Y11682476D01*
X5347715Y11666728D01*
X5238750Y11666728D01*
X5398518Y7886694D02*
G01*
X5320540Y7886694D01*
X5305046Y7881614D01*
X5294632Y7871200D01*
X5289552Y7855452D01*
X5289552Y7845038D01*
X5294632Y7829544D01*
X5305046Y7819130D01*
X5320540Y7814050D01*
X5398518Y7814050D01*
X5377690Y7779760D02*
G01*
X5383024Y7769346D01*
X5398518Y7753598D01*
X5289552Y7753598D01*
X3835400Y11227815D02*
G01*
X3835400Y11149837D01*
X3840479Y11134344D01*
X3850893Y11123929D01*
X3866641Y11118850D01*
X3877056Y11118850D01*
X3892550Y11123929D01*
X3902963Y11134344D01*
X3908043Y11149837D01*
X3908043Y11227815D01*
X3947668Y11201908D02*
G01*
X3947668Y11206987D01*
X3952747Y11217402D01*
X3958081Y11222736D01*
X3968495Y11227815D01*
X3989070Y11227815D01*
X3999484Y11222736D01*
X4004818Y11217402D01*
X4009897Y11206987D01*
X4009897Y11196574D01*
X4004818Y11186160D01*
X3994404Y11170665D01*
X3942334Y11118850D01*
X4015231Y11118850D01*
X2882900Y4545584D02*
G01*
X2882900Y4623562D01*
X2877820Y4639055D01*
X2867406Y4649470D01*
X2851658Y4654550D01*
X2841243Y4654550D01*
X2825750Y4649470D01*
X2815336Y4639055D01*
X2810256Y4623562D01*
X2810256Y4545584D01*
X2765552Y4545584D02*
G01*
X2708402Y4545584D01*
X2739390Y4587239D01*
X2723895Y4587239D01*
X2713481Y4592320D01*
X2708402Y4597400D01*
X2703068Y4613147D01*
X2703068Y4623562D01*
X2708402Y4639055D01*
X2718815Y4649470D01*
X2734309Y4654550D01*
X2749804Y4654550D01*
X2765552Y4649470D01*
X2770631Y4644389D01*
X2775965Y4633976D01*
X5003800Y5068315D02*
G01*
X5003800Y4990337D01*
X5008879Y4974844D01*
X5019293Y4964429D01*
X5035041Y4959350D01*
X5045456Y4959350D01*
X5060950Y4964429D01*
X5071363Y4974844D01*
X5076443Y4990337D01*
X5076443Y5068315D01*
X5162804Y5068315D02*
G01*
X5110734Y4995671D01*
X5188711Y4995671D01*
X5162804Y5068315D02*
G01*
X5162804Y4959350D01*
D11*
X3835999Y11896415D02*
G01*
X3835999Y11401501D01*
X3835999Y12601498D02*
G01*
X3835999Y12106625D01*
X3835999Y12601496D02*
G01*
X3937787Y12601498D01*
X3835999Y11401503D02*
G01*
X3937787Y11401501D01*
X2889961Y12427204D02*
G01*
X2889961Y12032742D01*
X2991789Y11931395D02*
G01*
X2826740Y11770613D01*
X4309973Y11821500D02*
G01*
X4309973Y11628780D01*
X3446373Y11628780D01*
X3446373Y11928779D01*
X3443960Y11931195D01*
X3042361Y11931195D01*
X2991561Y11931195D01*
D12*
X2556690Y12781498D02*
G01*
X4476701Y12781498D01*
X2556703Y11221496D02*
G01*
X4476714Y11221496D01*
X2556700Y12781500D02*
G01*
X2556700Y11221499D01*
X2896870Y11576812D02*
G01*
X2896870Y11799570D01*
X4476714Y11221496D02*
G01*
X4476714Y11972030D01*
X4476714Y12030969D02*
G01*
X4476714Y12781498D01*
X3984294Y11901500D02*
G01*
X3684295Y11901500D01*
X3684295Y12101499D01*
X3984294Y12101499D01*
X3984294Y11901500D01*
X4622800Y11502603D02*
G01*
X4622800Y12322596D01*
X5130800Y11502603D02*
G01*
X4622800Y11502603D01*
X5130800Y12322596D02*
G01*
X5130800Y11502603D01*
X4622800Y12322596D02*
G01*
X5130800Y12322596D01*
X4260799Y5656503D02*
G01*
X3460800Y5656503D01*
X3460800Y5146504D01*
X4260799Y5656503D02*
G01*
X4260799Y5146504D01*
X3015615Y7809199D02*
G01*
X4705951Y7809199D01*
X3015615Y9966495D02*
G01*
X3015615Y7809199D01*
X4705951Y9966495D02*
G01*
X4705951Y7810799D01*
X4707798Y10586491D02*
G01*
X3013801Y10586491D01*
X4707798Y9966495D02*
G01*
X4707798Y10586491D01*
X3013801Y9966495D02*
G01*
X3013801Y10586488D01*
X2463802Y9966495D02*
G01*
X5257797Y9966495D01*
X5257797Y5146504D02*
G01*
X5257797Y9966495D01*
X2463802Y5146504D02*
G01*
X2463802Y9966495D01*
X5257797Y5146504D02*
G01*
X2463802Y5146504D01*
X3213100Y11074400D02*
G01*
X3213100Y10845800D01*
X2935097Y11080089D02*
G01*
X4761102Y11080089D01*
X4761102Y10840085D01*
X2935097Y10840085D01*
X2935097Y11080089D01*
X3238500Y4686300D02*
G01*
X2476500Y4686300D01*
X2476500Y4940300D01*
X3238500Y4940300D02*
G01*
X2476500Y4940300D01*
X3238500Y4686300D02*
G01*
X3238500Y4940300D01*
X2979656Y4686300D02*
G01*
X2979656Y4940300D01*
X4728489Y4927904D02*
G01*
X5304485Y4927904D01*
X5304485Y4648911D01*
X4728489Y4648911D01*
X4728489Y4927904D01*
G75*
G01
X4416806Y12681509D02*
G03X4416806Y12681509I-50013J0D01*
G75*
G01
X5156200Y11912600D02*
G03X5156200Y11912600I-279400J0D01*
G75*
G01
X4984572Y11912600D02*
G03X4984572Y11912600I-107772J0D01*
M02*
