G04 Layer: BottomLayer*
G04 EasyEDA v6.5.47, 2024-10-28 03:20:38*
G04 309fc15a7aae42b18f401f2aeeeb71d8,d1a2f3594b844fcea760d271ff29be0f,10*
G04 Gerber Generator version 0.2*
G04 Scale: 100 percent, Rotated: No, Reflected: No *
G04 Dimensions in millimeters *
G04 leading zeros omitted , absolute positions ,4 integer and 5 decimal *
%FSLAX45Y45*%
%MOMM*%

%ADD10C,0.6000*%
%ADD11C,0.2540*%
%ADD12C,2.7940*%
%ADD13O,2.4999949999999997X1.2999974*%
%ADD14C,1.5000*%
%ADD15C,1.7000*%
%ADD16R,1.5748X1.7000*%
%ADD17C,1.5748*%
%ADD18R,1.5748X1.5748*%
%ADD19R,1.7000X1.7000*%
%ADD20C,0.8100*%

%LPD*%
D10*
X5130810Y9842492D02*
G01*
X5130810Y11634817D01*
X4164136Y12601491D01*
X4116816Y12601491D01*
X3086110Y10960092D02*
G01*
X4116816Y11990798D01*
X4116816Y12601491D01*
X5143510Y4787892D02*
G01*
X5005461Y4649843D01*
X3020959Y4649843D01*
X2857510Y4813292D01*
D11*
X3594110Y10960092D02*
G01*
X3594110Y9347192D01*
X5130810Y7810492D01*
D10*
X4876810Y11658592D02*
G01*
X4659716Y11658592D01*
X4316816Y12001492D01*
X2590810Y9842492D02*
G01*
X2590810Y10819731D01*
X3749456Y11978378D01*
X3784381Y11978378D01*
X4610110Y10960092D02*
G01*
X4610110Y11391892D01*
X4876810Y11658592D01*
X3111510Y4813292D02*
G01*
X3243285Y4813292D01*
X4889510Y4787892D02*
G01*
X3268685Y4787892D01*
X3243285Y4813292D01*
D11*
X2590810Y8318492D02*
G01*
X3467110Y9194792D01*
X3467110Y11012924D01*
X3855679Y11401493D01*
X4116816Y11401493D01*
X4356110Y10960092D02*
G01*
X4356110Y10443786D01*
X5088239Y9711656D01*
X5161086Y9711656D01*
X5236474Y9636269D01*
X5236474Y6392156D01*
X5130810Y6286492D01*
X2590810Y9080492D02*
G01*
X2969905Y9459587D01*
X2969905Y11073554D01*
X2977296Y11080945D01*
X2994797Y11080945D01*
X3860632Y11946780D01*
X3860632Y12606545D01*
X4039473Y12785387D01*
X4258015Y12785387D01*
X4876810Y12166592D01*
X3848110Y10960092D02*
G01*
X3848110Y10871192D01*
X5130810Y9588492D01*
X2603510Y4813292D02*
G01*
X2477627Y4939174D01*
X2477627Y9221309D01*
X2590810Y9334492D01*
D12*
G01*
X2896793Y12601447D03*
G01*
X4316806Y12001500D03*
G01*
X4116806Y11401501D03*
G01*
X4116806Y12601498D03*
G01*
X2896793Y11401552D03*
D13*
G01*
X4876800Y12166600D03*
G01*
X4876800Y11658600D03*
D14*
G01*
X2590800Y9842500D03*
G01*
X2590800Y9588500D03*
G01*
X2590800Y9334500D03*
G01*
X2590800Y9080500D03*
G01*
X2590800Y8826500D03*
G01*
X2590800Y8572500D03*
G01*
X2590800Y8318500D03*
G01*
X2590800Y8064500D03*
G01*
X2590800Y7810500D03*
G01*
X2590800Y7556500D03*
G01*
X2590800Y7302500D03*
G01*
X2590800Y7048500D03*
G01*
X2590800Y6794500D03*
G01*
X2590800Y6540500D03*
G01*
X2590800Y6286500D03*
G01*
X2590800Y6032500D03*
G01*
X2590800Y5778500D03*
G01*
X2590800Y5524500D03*
G01*
X2590800Y5270500D03*
G01*
X5130800Y9842500D03*
G01*
X5130800Y9588500D03*
G01*
X5130800Y9334500D03*
G01*
X5130800Y9080500D03*
G01*
X5130800Y8826500D03*
G01*
X5130800Y8572500D03*
G01*
X5130800Y8318500D03*
G01*
X5130800Y8064500D03*
G01*
X5130800Y7810500D03*
G01*
X5130800Y7556500D03*
G01*
X5130800Y7302500D03*
G01*
X5130800Y7048500D03*
G01*
X5130800Y6794500D03*
G01*
X5130800Y6540500D03*
G01*
X5130800Y6286500D03*
G01*
X5130800Y6032500D03*
G01*
X5130800Y5778500D03*
G01*
X5130800Y5524500D03*
G01*
X5130800Y5270500D03*
D15*
G01*
X4610100Y10960100D03*
G01*
X4356100Y10960100D03*
G01*
X4102100Y10960100D03*
G01*
X3848100Y10960100D03*
G01*
X3594100Y10960100D03*
G01*
X3340100Y10960100D03*
D16*
G01*
X3086100Y10960100D03*
D17*
G01*
X2603500Y4813300D03*
G01*
X2857500Y4813300D03*
D18*
G01*
X3111500Y4813300D03*
D19*
G01*
X4889500Y4787900D03*
D15*
G01*
X5143500Y4787900D03*
D20*
G01*
X3784371Y11978386D03*
M02*
