G04 Layer: TopSolderMaskLayer*
G04 EasyEDA v6.5.47, 2024-10-28 03:20:38*
G04 309fc15a7aae42b18f401f2aeeeb71d8,d1a2f3594b844fcea760d271ff29be0f,10*
G04 Gerber Generator version 0.2*
G04 Scale: 100 percent, Rotated: No, Reflected: No *
G04 Dimensions in millimeters *
G04 leading zeros omitted , absolute positions ,4 integer and 5 decimal *
%FSLAX45Y45*%
%MOMM*%

%AMMACRO1*4,1,8,-0.8085,-0.9008,-0.8382,-0.8708,-0.8382,0.8711,-0.8085,0.9008,0.8082,0.9008,0.8382,0.8711,0.8382,-0.8708,0.8082,-0.9008,-0.8085,-0.9008,0*%
%AMMACRO2*4,1,8,-0.8085,-0.8382,-0.8382,-0.8082,-0.8382,0.8085,-0.8085,0.8382,0.8082,0.8382,0.8382,0.8085,0.8382,-0.8082,0.8082,-0.8382,-0.8085,-0.8382,0*%
%AMMACRO3*4,1,8,-0.8711,-0.9008,-0.9008,-0.8708,-0.9008,0.8711,-0.8711,0.9008,0.8708,0.9008,0.9008,0.8711,0.9008,-0.8708,0.8708,-0.9008,-0.8711,-0.9008,0*%
%ADD10C,2.8956*%
%ADD11O,2.601595X1.4015974000000002*%
%ADD12C,1.6000*%
%ADD13C,1.8016*%
%ADD14MACRO1*%
%ADD15C,1.6764*%
%ADD16MACRO2*%
%ADD17MACRO3*%

%LPD*%
D10*
G01*
X2896793Y12601447D03*
G01*
X4316806Y12001500D03*
G01*
X4116806Y11401501D03*
G01*
X4116806Y12601498D03*
G01*
X2896793Y11401552D03*
D11*
G01*
X4876800Y12166600D03*
G01*
X4876800Y11658600D03*
D12*
G01*
X2590800Y9842500D03*
G01*
X2590800Y9588500D03*
G01*
X2590800Y9334500D03*
G01*
X2590800Y9080500D03*
G01*
X2590800Y8826500D03*
G01*
X2590800Y8572500D03*
G01*
X2590800Y8318500D03*
G01*
X2590800Y8064500D03*
G01*
X2590800Y7810500D03*
G01*
X2590800Y7556500D03*
G01*
X2590800Y7302500D03*
G01*
X2590800Y7048500D03*
G01*
X2590800Y6794500D03*
G01*
X2590800Y6540500D03*
G01*
X2590800Y6286500D03*
G01*
X2590800Y6032500D03*
G01*
X2590800Y5778500D03*
G01*
X2590800Y5524500D03*
G01*
X2590800Y5270500D03*
G01*
X5130800Y9842500D03*
G01*
X5130800Y9588500D03*
G01*
X5130800Y9334500D03*
G01*
X5130800Y9080500D03*
G01*
X5130800Y8826500D03*
G01*
X5130800Y8572500D03*
G01*
X5130800Y8318500D03*
G01*
X5130800Y8064500D03*
G01*
X5130800Y7810500D03*
G01*
X5130800Y7556500D03*
G01*
X5130800Y7302500D03*
G01*
X5130800Y7048500D03*
G01*
X5130800Y6794500D03*
G01*
X5130800Y6540500D03*
G01*
X5130800Y6286500D03*
G01*
X5130800Y6032500D03*
G01*
X5130800Y5778500D03*
G01*
X5130800Y5524500D03*
G01*
X5130800Y5270500D03*
D13*
G01*
X4610100Y10960100D03*
G01*
X4356100Y10960100D03*
G01*
X4102100Y10960100D03*
G01*
X3848100Y10960100D03*
G01*
X3594100Y10960100D03*
G01*
X3340100Y10960100D03*
D14*
G01*
X3086100Y10960087D03*
D15*
G01*
X2603500Y4813300D03*
G01*
X2857500Y4813300D03*
D16*
G01*
X3111500Y4813300D03*
D17*
G01*
X4889512Y4787887D03*
D13*
G01*
X5143500Y4787900D03*
M02*
